<svg width="24" height="29" viewBox="0 0 24 29" fill="none" xmlns="http://www.w3.org/2000/svg">
<path d="M18.0328 3.33594H21.7828C22.1143 3.33594 22.4322 3.46763 22.6667 3.70205C22.9011 3.93647 23.0328 4.25442 23.0328 4.58594V27.0859C23.0328 27.4175 22.9011 27.7354 22.6667 27.9698C22.4322 28.2042 22.1143 28.3359 21.7828 28.3359H1.78278C1.45126 28.3359 1.13331 28.2042 0.898892 27.9698C0.664472 27.7354 0.532776 27.4175 0.532776 27.0859V4.58594C0.532776 4.25442 0.664472 3.93647 0.898892 3.70205C1.13331 3.46763 1.45126 3.33594 1.78278 3.33594H5.53278V0.835938H8.03278V3.33594H15.5328V0.835938H18.0328V3.33594ZM18.0328 5.83594V8.33594H15.5328V5.83594H8.03278V8.33594H5.53278V5.83594H3.03278V25.8359H20.5328V5.83594H18.0328ZM5.53278 10.8359H18.0328V13.3359H5.53278V10.8359ZM5.53278 15.8359H18.0328V18.3359H5.53278V15.8359Z" fill="#39B5D9"/>
</svg>
